<?xml version="1.0" standalone="no"?>
<!DOCTYPE svg PUBLIC "-//W3C//DTD SVG 20010904//EN"
 "http://www.w3.org/TR/2001/REC-SVG-20010904/DTD/svg10.dtd">
<svg version="1.0" xmlns="http://www.w3.org/2000/svg"
 width="278.000000pt" height="278.000000pt" viewBox="0 0 278.000000 278.000000"
 preserveAspectRatio="xMidYMid meet">
<metadata>
Created by potrace 1.14, written by Peter Selinger 2001-2017
</metadata>
<g transform="translate(0.000000,278.000000) scale(0.100000,-0.100000)"
fill="#000000" stroke="none">
<path d="M241 1729 c-65 -19 -139 -74 -180 -134 -46 -68 -59 -113 -59 -207 0
-75 3 -95 29 -150 30 -63 101 -141 140 -153 10 -4 19 -11 19 -17 0 -6 3 -8 7
-5 3 4 13 1 21 -5 22 -19 183 -20 234 -2 55 19 106 54 114 77 8 25 -22 57 -48
52 -12 -3 -28 -11 -37 -19 -54 -49 -191 -56 -263 -13 -90 52 -131 126 -132
231 -1 112 49 198 144 248 35 18 60 23 115 22 61 0 79 -5 127 -33 l57 -32 21
21 c27 27 26 34 -16 68 -66 55 -199 78 -293 51z"/>
<path d="M1238 1719 c-23 -24 -23 -25 -20 -274 1 -137 2 -258 3 -268 1 -34 29
-85 56 -105 46 -33 110 -33 122 1 12 32 -4 57 -38 57 -34 0 -53 20 -58 63 -8
57 -8 247 -1 247 4 0 3 14 -2 30 -5 19 -5 30 1 30 6 0 7 5 3 11 -3 6 -6 53 -6
104 0 78 -3 97 -19 111 -17 15 -19 15 -41 -7z"/>
<path d="M1486 1725 c-18 -14 -19 -30 -19 -294 0 -268 1 -280 22 -314 25 -42
56 -63 99 -70 29 -5 46 5 66 40 9 16 -21 43 -47 43 -52 1 -52 -1 -57 301 -5
268 -6 282 -25 295 -17 11 -23 10 -39 -1z"/>
<path d="M2305 1720 c-14 -16 -16 -46 -16 -231 1 -236 3 -264 25 -307 48 -94
118 -136 221 -135 112 0 177 41 222 140 43 95 26 203 -44 275 -51 52 -96 71
-170 72 -52 0 -70 -5 -113 -32 -28 -18 -52 -32 -54 -32 -1 0 -1 54 -1 120 1
75 -3 124 -9 129 -25 18 -45 19 -61 1z m299 -281 c116 -55 123 -229 12 -294
-110 -64 -244 18 -240 146 4 97 66 159 167 167 11 0 38 -8 61 -19z"/>
<path d="M795 1522 c-56 -18 -117 -68 -141 -116 -29 -58 -32 -161 -6 -218 38
-85 116 -138 211 -142 153 -8 264 105 255 261 -4 89 -69 183 -144 209 -14 4
-28 7 -32 6 -5 -1 -8 1 -8 6 0 12 -92 8 -135 -6z m149 -83 c51 -24 85 -78 89
-137 2 -28 1 -54 -2 -58 -3 -3 -7 -10 -7 -15 -1 -5 -2 -12 -3 -16 -5 -31 -101
-101 -121 -88 -5 3 -11 1 -15 -5 -4 -7 -14 -6 -28 2 -12 6 -22 10 -22 8 0 -9
-53 15 -73 34 -27 24 -55 84 -48 103 3 7 1 15 -5 18 -5 4 -6 12 -2 18 4 7 9
21 10 31 6 36 45 86 81 105 42 22 102 22 146 0z"/>
<path d="M1872 1529 c-65 -12 -126 -60 -167 -130 -28 -48 -27 -168 3 -224 46
-87 104 -125 199 -130 53 -3 72 0 113 22 28 14 50 30 50 34 0 5 5 9 11 9 5 0
8 -3 6 -7 -9 -15 12 -50 32 -56 11 -2 28 1 38 8 15 11 18 30 17 137 0 144 -13
202 -60 256 -28 33 -85 71 -116 78 -5 1 -9 2 -10 3 -10 7 -80 7 -116 0z m130
-90 c77 -41 107 -153 64 -236 -55 -107 -230 -104 -281 5 -44 90 -6 200 80 237
34 14 105 11 137 -6z"/>
</g>
</svg>
